<?xml version="1.0" standalone="no"?>
<!DOCTYPE svg PUBLIC "-//W3C//DTD SVG 20010904//EN"
 "http://www.w3.org/TR/2001/REC-SVG-20010904/DTD/svg10.dtd">
<svg version="1.0" xmlns="http://www.w3.org/2000/svg"
 width="512.000000pt" height="512.000000pt" viewBox="0 0 512.000000 512.000000"
 preserveAspectRatio="xMidYMid meet">
<metadata>
Created by potrace 1.16, written by Peter Selinger 2001-2019
</metadata>
<g transform="translate(0.000000,512.000000) scale(0.100000,-0.100000)"
fill="#000000" stroke="none">
<path d="M602 4129 c-181 -90 -235 -318 -116 -482 38 -52 108 -102 165 -117
24 -7 710 -9 1930 -8 l1894 3 54 30 c225 124 225 446 0 570 l-54 30 -1906 3
-1905 2 -62 -31z"/>
<path d="M602 2849 c-181 -90 -235 -318 -116 -482 38 -52 108 -102 165 -117
24 -7 606 -9 1625 -8 l1589 3 47 23 c60 30 120 90 150 150 19 39 23 63 23 142
0 79 -4 103 -23 142 -30 60 -90 120 -150 150 l-47 23 -1601 3 -1600 2 -62 -31z"/>
<path d="M602 1569 c-181 -90 -235 -318 -116 -482 38 -52 107 -101 164 -117
22 -6 402 -10 1007 -10 961 0 973 0 1028 21 260 97 260 501 0 598 -55 21 -67
21 -1039 21 l-983 0 -61 -31z"/>
</g>
</svg>
