<?xml version="1.0" standalone="no"?>
<!DOCTYPE svg PUBLIC "-//W3C//DTD SVG 20010904//EN"
 "http://www.w3.org/TR/2001/REC-SVG-20010904/DTD/svg10.dtd">
<svg version="1.0" xmlns="http://www.w3.org/2000/svg"
 width="256.000000pt" height="256.000000pt" viewBox="0 0 256.000000 256.000000"
 preserveAspectRatio="xMidYMid meet">

<g transform="translate(0.000000,256.000000) scale(0.100000,-0.100000)"
fill="#FCAB3F" stroke="none">
<path d="M203 2542 c-100 -35 -171 -114 -193 -216 -8 -34 -10 -164 -8 -386 3
-316 4 -338 24 -381 31 -66 78 -114 142 -146 l57 -28 365 0 365 0 57 28 c64
32 111 80 142 146 20 44 21 61 21 411 l0 365 -28 57 c-32 64 -80 111 -146 142
-44 20 -64 21 -396 23 -316 3 -355 1 -402 -15z m726 -196 c49 -26 51 -43 51
-376 0 -333 -2 -350 -51 -376 -37 -19 -633 -21 -674 -2 -53 24 -55 40 -55 380
1 334 2 347 51 374 36 20 639 20 678 0z"/>
<path d="M1585 2542 c-99 -34 -174 -117 -195 -215 -8 -35 -10 -164 -8 -387 3
-318 4 -337 24 -381 28 -60 93 -125 153 -153 44 -20 59 -21 411 -21 352 0 367
1 411 21 60 28 125 93 153 153 20 44 21 59 21 411 0 352 -1 367 -21 411 -12
26 -41 66 -64 89 -84 84 -88 85 -485 87 -312 3 -355 1 -400 -15z m742 -215
l28 -27 0 -330 0 -330 -28 -27 -27 -28 -330 0 -330 0 -27 28 -28 27 0 329 c0
315 1 330 20 351 11 12 29 26 40 31 11 4 163 7 337 6 l318 -2 27 -28z"/>
<path d="M203 1162 c-100 -35 -171 -114 -193 -216 -8 -34 -10 -164 -8 -386 3
-316 4 -338 24 -381 31 -66 78 -114 142 -146 l57 -28 365 0 365 0 57 28 c64
32 111 80 142 146 20 44 21 61 21 411 l0 365 -28 57 c-32 64 -80 111 -146 142
-44 20 -64 21 -396 23 -316 3 -355 1 -402 -15z m726 -196 c49 -26 51 -43 51
-376 0 -333 -2 -350 -51 -376 -37 -19 -633 -21 -674 -2 -53 24 -55 40 -55 380
1 334 2 347 51 374 36 20 639 20 678 0z"/>
<path d="M1585 1162 c-99 -34 -174 -117 -195 -215 -8 -35 -10 -164 -8 -387 3
-318 4 -337 24 -381 28 -60 93 -125 153 -153 44 -20 59 -21 411 -21 352 0 367
1 411 21 60 28 125 93 153 153 20 44 21 59 21 411 0 352 -1 367 -21 411 -28
60 -93 125 -153 153 -44 20 -62 21 -396 23 -312 3 -355 1 -400 -15z m742 -215
l28 -27 0 -330 0 -330 -28 -27 -27 -28 -330 0 -330 0 -27 28 -28 27 0 329 c0
315 1 330 20 351 11 12 29 26 40 31 11 4 163 7 337 6 l318 -2 27 -28z"/>
</g>
</svg>
