<?xml version="1.0" standalone="yes"?>
<svg xmlns="http://www.w3.org/2000/svg" width="256" height="256">
<path style="fill:#fff; stroke:none;" d="M0 0L0 256L125 256C105.481 223.694 87.8677 190.091 69.6944 157C59.3709 138.202 45.6108 118.845 43.1667 97C38.302 53.5204 68.231 4.82007 115 1L80 0L0 0z"/>
<path style="fill:#4D4D4D; stroke:none;" d="M115 0.439041C103.212 2.28012 92.1772 6.41582 82 12.615C73.6786 17.6837 66.4978 24.3974 60.4498 32C19.2866 83.7445 58.9064 137.436 84.6914 185C94.662 203.392 104.663 221.811 115 240C117.757 244.851 121.763 256.848 128.985 255.623C135.269 254.558 138.818 243.881 141.576 239C151.297 221.794 161.076 204.5 170.255 187C184.631 159.591 207.651 131.119 212.561 100C221.524 43.2004 172.998 -8.61945 115 0.439041z"/>
<path style="fill:#fff; stroke:none;" d="M141 0L141 1C187.769 4.82007 217.698 53.5203 212.833 97C210.389 118.845 196.629 138.202 186.306 157C168.132 190.091 150.519 223.694 131 256L256 256L256 0L141 0M125 43.429C117.829 44.3204 111.116 46.0904 105.001 50.1011C66.88 75.1012 91.7845 132.059 135 126.816C186.617 120.553 176.262 37.0576 125 43.429z"/>
</svg>
