<?xml version="1.0" standalone="yes"?>
<svg xmlns="http://www.w3.org/2000/svg" width="512" height="512">
<path style="fill:#ffffff; stroke:none;" d="M0 0L0 273L136 273L136 136L205 136L205 273L342 273L342 342L205 342L205 478L136 478L136 342L0 342L0 512L512 512L512 478L443 478L443 117L399 125.4L358 134L358 70L392 62.4244L512 34L512 0L0 0z"/>
<path style="fill:#FDC963; stroke:none;" d="M358 70L358 134L443 117L443 478L512 478L512 34L472 43.1157L358 70M136 136L136 273L0 273L0 342L136 342L136 478L205 478L205 342L342 342L342 273L205 273L205 136L136 136z"/>
</svg>
