<?xml version="1.0" standalone="yes"?>
<svg xmlns="http://www.w3.org/2000/svg" width="256" height="256">
<path style="fill:#ffffff; stroke:none;" d="M0 0L0 256L81 256L81 255C52.2853 246.709 64.6385 210.439 64.9969 189C65.2564 173.48 66.6987 157.458 68.1698 142C68.8912 134.419 71.6976 123.495 69.6821 116.093C68.5012 111.757 63.1423 109.59 60.0008 106.816C54.994 102.394 50.9798 97.2054 48.4537 91C40.6982 71.9486 48.7073 46.577 51.9198 27C53.43 17.7965 53.7543 8.43553 58 0L0 0z"/>
<path style="fill:#FDC963; stroke:none;" d="M58.2284 1.03165C53.6694 3.7415 53.9359 12.3844 53.2708 17C51.1081 32.0089 48.7992 46.9989 46.5787 62C44.5472 75.7246 44.5889 89.4145 53.5293 101C57.7284 106.441 68.8205 111.049 69.848 118.015C71.0072 125.874 68.3898 135.067 68.0394 143C67.1144 163.938 65.8159 185.135 63.8302 206C62.9002 215.773 60.4448 227.312 62.6806 237C66.3198 252.77 85.6782 261.241 99.9992 253.586C115.85 245.115 113.118 228.006 112.09 213C110.629 191.697 109.853 170.257 107.83 149C106.958 139.835 103.092 124.948 105.773 116.105C107.402 110.732 117.479 106.65 121.1 101.985C130.708 89.6069 130.868 75.8429 128.729 61C126.614 46.3213 124.178 31.6884 122.13 17C121.533 12.7166 121.73 3.64998 117.686 1.02855C112.873 -2.09094 108.813 2.53413 108.189 7.00076C106.327 20.3184 105.478 34.5582 104.989 48C104.889 50.7639 105.138 61.5154 101 61.5154C97.0032 61.5154 97.2818 50.7439 97.0895 48C96.1341 34.3688 95.4407 20.5756 93.8912 7.00076C93.3941 2.64598 89.9375 -1.38037 85.1481 0.608032C81.3089 2.20195 81.5085 8.50182 81.1698 12C80.0409 23.6571 79.2836 35.3427 78.1698 47C77.8874 49.9547 78.9404 60.5307 74.7948 61.3688C70.0615 62.3258 70.9022 50.4876 70.5756 48C68.8859 35.1308 68.1546 21.9455 67.0856 9C66.7039 4.37656 64.5981 -2.75449 58.2284 1.03165z"/>
<path style="fill:#ffffff; stroke:none;" d="M64 0L64 1C72.2251 9.778 68.9029 35.2883 70.2855 47C70.7052 50.5549 69.7317 59.8663 73.375 61.8241C78.4177 64.5338 77.9601 50.194 78.1698 48C79.602 33.0106 78.085 13.9557 84 0L64 0M91 0C97.5311 12.9934 96.335 33.5266 97.0386 48C97.1787 50.8818 96.852 62.1327 101 62.1327C105.584 62.1327 104.892 50.0198 105.039 47C105.736 32.653 104.914 13.0415 111 0L91 0M118 0C121.657 8.46486 122.024 17.9708 123.424 27C126.46 46.5729 134.802 71.9023 127.071 91C124.544 97.2421 120.144 103.089 114.985 107.381C112.073 109.805 106.224 112.061 105.407 116.105C104.148 122.338 106.476 130.661 106.91 137C108.071 153.929 108.297 171.15 110.285 188C112.7 208.465 121.553 247.116 95 255L95 256L178 256L178 255C147.134 246.088 162.077 200.855 163.914 178C164.784 167.183 164.522 154.459 167.433 144C168.587 139.852 174.501 136.462 173.748 132C173.101 128.175 169.135 124.396 167.323 121C164.156 115.061 162.003 108.51 160.375 102C150.58 62.8284 160.67 18.3785 201 1L175 0L118 0z"/>
<path style="fill:#FDC963; stroke:none;" d="M201 0.638123C159.307 12.5523 151.442 65.4295 159.884 101C161.593 108.2 163.827 115.445 167.323 122C168.967 125.082 173.315 129.334 173.039 133C172.733 137.053 168.037 139.813 167.225 144C164.448 158.3 164.28 173.51 162.831 188C161.334 202.97 157.858 218.943 159.093 234C160.437 250.374 178.02 259.535 193 255.211C214.952 248.874 211 222.549 211 205L211 55L211 12C210.997 4.93394 209.942 -1.91705 201 0.638123z"/>
<path style="fill:#ffffff; stroke:none;" d="M209 0C214.96 19.1012 211 44.0312 211 64L211 196C211 215.833 216.818 247.645 192 255L192 256L256 256L256 0L209 0z"/>
</svg>
